# xmcd CD database file
#
# Track frame offsets:
#	150
#	18142
#	36702
#	54682
#
# Disc length: 975 seconds
#
# Revision: 0
# Processed by: cddbd v1.5.1PL2 Copyright (c) Steve Scherf et al.
# Submitted via: CDex 1.51
#
DISCID=3003cd04
DTITLE=川崎洋子 - ココロノトビラ
DYEAR=1998
DGENRE=J-Pop
TTITLE0=ココロノトビラ
TTITLE1=12時ちょうどのメッセージ
TTITLE2=ココロノトビラ（カラオケ）
TTITLE3=12時ちょうどのメッセージ（カラオケ）
EXTD=YEAR: 1998
EXTT0=
EXTT1=
EXTT2=
EXTT3=
PLAYORDER=
